<svg width="3600" height="3600" viewBox="0 0 3600 3600" fill="none" xmlns="http://www.w3.org/2000/svg">
<path d="M0 800C0 358.172 358.172 0 800 0H2800C3241.83 0 3600 358.172 3600 800V2800C3600 3241.83 3241.83 3600 2800 3600H800C358.172 3600 0 3241.83 0 2800V800Z" fill="#1264A3"/>
<path d="M803 823C755 823 721 857 721 905V1419C721 1537 807 1623 925 1623H1117C1235 1623 1321 1537 1321 1419V905C1321 857 1287 823 1239 823H803ZM941 1023H1101C1113 1023 1121 1031 1121 1043V1161C1121 1197 1095 1223 1059 1223H983C947 1223 921 1197 921 1161V1043C921 1031 929 1023 941 1023ZM1123 1723C1063 1723 1021 1765 1021 1823C1021 1881 1063 1923 1123 1923H1219C1279 1923 1321 1881 1321 1823C1321 1765 1279 1723 1219 1723H1123ZM823 1923C763 1923 721 1965 721 2023C721 2081 763 2123 823 2123H919C979 2123 1021 2081 1021 2023C1021 1965 979 1923 919 1923H823ZM1123 2123C1063 2123 1021 2165 1021 2223C1021 2281 1063 2323 1123 2323H1219C1279 2323 1321 2281 1321 2223C1321 2165 1279 2123 1219 2123H1123ZM823 2323C763 2323 721 2365 721 2423C721 2481 763 2523 823 2523H919C979 2523 1021 2481 1021 2423C1021 2365 979 2323 919 2323H823ZM1123 2523C1063 2523 1021 2565 1021 2623C1021 2681 1063 2723 1123 2723H1219C1279 2723 1321 2681 1321 2623C1321 2565 1279 2523 1219 2523H1123ZM823 2723C763 2723 721 2765 721 2823C721 2881 763 2923 823 2923H919C979 2923 1021 2881 1021 2823C1021 2765 979 2723 919 2723H823ZM1123 2923C1063 2923 1021 2965 1021 3023C1021 3081 1063 3123 1123 3123H1219C1279 3123 1321 3081 1321 3023C1321 2965 1279 2923 1219 2923H1123ZM823 3123C763 3123 721 3165 721 3223C721 3281 763 3323 823 3323H919C979 3323 1021 3281 1021 3223C1021 3165 979 3123 919 3123H823Z" fill="white"/>
</svg>
