<svg width="3600" height="3600" viewBox="0 0 3600 3600" fill="none" xmlns="http://www.w3.org/2000/svg">
<path d="M0 800C0 358.172 358.172 0 800 0H2800C3241.83 0 3600 358.172 3600 800V2800C3600 3241.83 3241.83 3600 2800 3600H800C358.172 3600 0 3241.83 0 2800V800Z" fill="#616061"/>
<path d="M1496 1300H1304C1186 1300 1100 1386 1100 1504V2096C1100 2214 1186 2300 1304 2300H1496C1614 2300 1700 2214 1700 2096V1504C1700 1386 1614 1300 1496 1300ZM2398 2100H2300V2098V1402C2300 1402 2300 1402 2300 1400C2300 1372 2290 1346 2272 1328C2254 1310 2228 1300 2200 1300H2198H2002C1942 1300 1900 1342 1900 1400C1900 1458 1942 1500 2002 1500H2100V2098V2100H2002C1942 2100 1900 2142 1900 2200C1900 2258 1942 2300 2002 2300H2398C2458 2300 2500 2258 2500 2200C2500 2142 2458 2100 2398 2100ZM1500 2060C1500 2082 1482 2100 1460 2100H1340C1318 2100 1300 2082 1300 2060V1540C1300 1518 1318 1500 1340 1500H1460C1482 1500 1500 1518 1500 1540V2060Z" fill="white"/>
</svg>
