<svg width="3600" height="3600" viewBox="0 0 3600 3600" fill="none" xmlns="http://www.w3.org/2000/svg">
<path d="M0 800C0 358.172 358.172 0 800 0H2800C3241.83 0 3600 358.172 3600 800V2800C3600 3241.83 3241.83 3600 2800 3600H800C358.172 3600 0 3241.83 0 2800V800Z" fill="#DE4E2B"/>
<path d="M1568.57 2217.67C1604.34 2181.26 1612.75 2127.62 1564.37 2083.55L1255.1 1800L1564.37 1516.45C1608.55 1476.21 1612.75 1418.74 1568.57 1382.33C1524.39 1345.93 1469.69 1334.44 1417.09 1382.33L1036.29 1731.03C987.903 1775.09 987.903 1824.91 1036.29 1868.97L1417.09 2217.67C1465.48 2261.73 1526.5 2259.82 1568.57 2217.67ZM2031.43 2217.67C2075.61 2254.07 2130.31 2265.56 2182.91 2217.67L2563.71 1868.97C2612.1 1824.91 2612.1 1775.09 2563.71 1731.03L2182.91 1382.33C2134.52 1338.27 2073.5 1340.19 2031.43 1382.33C1995.66 1418.74 1987.25 1472.38 2035.63 1516.45L2344.9 1800L2035.63 2083.55C1991.45 2123.79 1987.25 2181.26 2031.43 2217.67Z" fill="white"/>
</svg>
