<svg width="3600" height="3600" viewBox="0 0 3600 3600" fill="none" xmlns="http://www.w3.org/2000/svg">
<path d="M0 800C0 358.172 358.172 0 800 0H2800C3241.83 0 3600 358.172 3600 800V2800C3600 3241.83 3241.83 3600 2800 3600H800C358.172 3600 0 3241.83 0 2800V800Z" fill="#E01E5A"/>
<path d="M1581.25 2233.33C1520 2233.33 1471.87 2185.67 1471.87 2125C1471.87 1999.33 1469.69 1884.5 1318.75 1800C1469.69 1715.5 1471.87 1600.67 1471.87 1475C1471.87 1416.5 1520 1366.67 1581.25 1366.67C1640.31 1366.67 1690.62 1319 1690.62 1258.33C1690.62 1199.83 1640.31 1150 1581.25 1150C1384.37 1150 1253.13 1280 1253.13 1475C1253.13 1650.5 1100 1605 1100 1800C1100 1975.5 1253.13 1958.17 1253.13 2125C1253.13 2320 1384.37 2450 1581.25 2450C1640.31 2450 1690.62 2402.33 1690.62 2341.67C1690.62 2283.17 1640.31 2233.33 1581.25 2233.33ZM2018.75 2233.33C1957.5 2233.33 1909.38 2283.17 1909.38 2341.67C1909.38 2402.33 1957.5 2450 2018.75 2450C2215.62 2450 2346.87 2320 2346.87 2125C2346.87 1943 2500 1990.67 2500 1800C2500 1605 2346.87 1646.17 2346.87 1475C2346.87 1280 2215.62 1150 2018.75 1150C1957.5 1150 1909.38 1199.83 1909.38 1258.33C1909.38 1319 1957.5 1366.67 2018.75 1366.67C2077.81 1366.67 2128.13 1416.5 2128.13 1475C2128.13 1600.67 2130.31 1715.5 2281.25 1800C2130.31 1884.5 2128.13 1999.33 2128.13 2125C2128.13 2185.67 2077.81 2233.33 2018.75 2233.33Z" fill="white"/>
</svg>
