<svg width="3600" height="3600" viewBox="0 0 3600 3600" fill="none" xmlns="http://www.w3.org/2000/svg">
<path d="M0 800C0 358.172 358.172 0 800 0H2800C3241.83 0 3600 358.172 3600 800V2800C3600 3241.83 3241.83 3600 2800 3600H800C358.172 3600 0 3241.83 0 2800V800Z" fill="#1D9BD1"/>
<path d="M1175 2500C1125 2500 1079 2487.67 1037 2463C995 2438.33 961.667 2405 937 2363C912.333 2321 900 2275 900 2225V1375C900 1325 912.333 1279 937 1237C961.667 1195 995 1161.67 1037 1137C1079 1112.33 1125 1100 1175 1100H2425C2475 1100 2521 1112.33 2563 1137C2605 1161.67 2638.33 1195 2663 1237C2687.67 1279 2700 1325 2700 1375V2225C2700 2275 2687.67 2321 2663 2363C2638.33 2405 2605 2438.33 2563 2463C2521 2487.67 2475 2500 2425 2500H1175ZM2425 2350C2459.67 2350 2489 2338 2513 2314C2537.67 2289.33 2550 2259.67 2550 2225V1375C2550 1340.33 2537.67 1311 2513 1287C2489 1262.33 2459.67 1250 2425 1250H1175C1140.33 1250 1110.67 1262.33 1086 1287C1062 1311 1050 1340.33 1050 1375V2225C1050 2259.67 1062 2289.33 1086 2314C1110.67 2338 1140.33 2350 1175 2350H2425ZM1800 2000C1777.33 2000 1756.33 1991.67 1737 1975L1279 1584C1259.67 1568 1250 1548.33 1250 1525C1250 1507 1255.33 1491.33 1266 1478C1272.67 1469.33 1281.33 1462.67 1292 1458C1302.67 1452.67 1313.67 1450 1325 1450C1343.67 1450 1359.33 1455.33 1372 1466L1782 1820C1787.33 1824.67 1793.33 1827 1800 1827C1806.67 1827 1812.67 1824.67 1818 1820L2228 1466C2240.67 1455.33 2256.33 1450 2275 1450C2286.33 1450 2297.33 1452.67 2308 1458C2318.67 1462.67 2327.33 1469.33 2334 1478C2344.67 1491.33 2350 1507 2350 1525C2350 1548.33 2340.33 1568 2321 1584L1863 1975C1843.67 1991.67 1822.67 2000 1800 2000Z" fill="white"/>
</svg>
