<svg width="3600" height="3600" viewBox="0 0 3600 3600" fill="none" xmlns="http://www.w3.org/2000/svg">
<path d="M0 800C0 358.172 358.172 0 800 0H2800C3241.83 0 3600 358.172 3600 800V2800C3600 3241.83 3241.83 3600 2800 3600H800C358.172 3600 0 3241.83 0 2800V800Z" fill="#1264A3"/>
<path d="M1100 1200C1100 1258 1142 1300 1202 1300H2398C2458 1300 2500 1258 2500 1200C2500 1142 2458 1100 2398 1100H1202C1142 1100 1100 1142 1100 1200ZM1100 1600C1100 1658 1142 1700 1202 1700H2398C2458 1700 2500 1658 2500 1600C2500 1542 2458 1500 2398 1500H1202C1142 1500 1100 1542 1100 1600ZM1100 2000C1100 2058 1142 2100 1202 2100H2398C2458 2100 2500 2058 2500 2000C2500 1942 2458 1900 2398 1900H1202C1142 1900 1100 1942 1100 2000ZM1100 2400C1100 2458 1142 2500 1202 2500H1998C2058 2500 2100 2458 2100 2400C2100 2342 2058 2300 1998 2300H1202C1142 2300 1100 2342 1100 2400Z" fill="white"/>
</svg>
