<svg width="3600" height="3600" fill="none" xmlns="http://www.w3.org/2000/svg">
<path d="M0 800C0 358.172 358.172 0 800 0h2000c441.83 0 800 358.172 800 800v2000c0 441.83-358.17 800-800 800H800c-441.828 0-800-358.17-800-800V800Z" fill="#E42527"/>
<g fill="#fff">
<path d="M2356.077 2552.266c-30.517 0-55.152-24.635-55.152-55.152s24.635-55.152 55.152-55.152c30.333 0 54.968-24.634 54.968-54.968V1322.012c0-30.517 24.634-55.151 55.152-55.151 30.517 0 55.152 24.634 55.152 55.151v1064.982c0 91.184-74.088 165.272-165.272 165.272ZM1136.707 2330.74c-30.517 0-55.152-24.635-55.152-55.152v-1062.96c0-91.184 74.088-165.271 165.272-165.271 30.517 0 55.152 24.634 55.152 55.151 0 30.518-24.635 55.152-55.152 55.152-30.334 0-54.968 24.635-54.968 54.968v1062.96c0 30.517-24.635 55.151-55.152 55.151Z"/>
<path d="M2684.267 1157.844H915.733c-30.518 0-55.152-24.634-55.152-55.152 0-30.517 24.634-55.151 55.152-55.151h1768.534c30.518 0 55.152 24.634 55.152 55.151 0 30.518-24.634 55.152-55.152 55.152ZM2684.267 2552.643H915.733c-30.518 0-55.152-24.634-55.152-55.151 0-30.518 24.634-55.152 55.152-55.152h1768.534c30.518 0 55.152 24.634 55.152 55.152 0 30.517-24.634 55.151-55.152 55.151ZM1615.267 2174.655c-9.56 0-19.12-2.39-27.576-7.353-17.097-9.927-27.576-28.128-27.576-47.798v-635.9c0-19.672 10.479-37.872 27.576-47.8 17.097-9.926 38.054-9.926 55.151 0l550.967 318.043c17.097 9.927 27.576 28.127 27.576 47.798 0 19.671-10.479 37.871-27.576 47.799l-550.967 317.858c-8.456 4.963-18.016 7.353-27.575 7.353Zm55.151-595.455v444.89l385.512-222.445-385.512-222.445Z"/>
</g>
</svg>