<svg width="3600" height="3600" viewBox="0 0 3600 3600" fill="none" xmlns="http://www.w3.org/2000/svg">
<path d="M0 800C0 358.172 358.172 0 800 0H2800C3241.83 0 3600 358.172 3600 800V2800C3600 3241.83 3241.83 3600 2800 3600H800C358.172 3600 0 3241.83 0 2800V800Z" fill="#E01E5A"/>
<path d="M1295.46 2323.32C1266.56 2323.32 1240.41 2316.84 1216.99 2303.88C1194.07 2290.43 1175.88 2272.25 1162.43 2249.33C1149.48 2225.91 1143 2199.75 1143 2170.85V1429.46C1143 1400.56 1149.48 1374.66 1162.43 1351.74C1175.88 1328.32 1194.07 1310.13 1216.99 1297.18C1240.41 1283.73 1266.56 1277 1295.46 1277H1962.12C1991.01 1277 2016.92 1283.73 2039.84 1297.18C2063.26 1310.13 2081.45 1328.32 2094.4 1351.74C2107.85 1374.66 2114.58 1400.56 2114.58 1429.46V1581.18L2399.33 1426.47C2419.26 1415.51 2439.19 1410.03 2459.12 1410.03C2478.05 1410.03 2495.49 1414.76 2511.43 1424.23C2527.38 1433.7 2539.83 1447.15 2548.8 1464.59C2558.27 1482.03 2563 1501.71 2563 1523.63V2076.68C2563 2098.61 2558.27 2118.29 2548.8 2135.73C2539.83 2153.17 2527.38 2166.62 2511.43 2176.08C2495.49 2185.55 2478.05 2190.28 2459.12 2190.28C2439.19 2190.28 2419.26 2184.8 2399.33 2173.84L2114.58 2019.14V2170.85C2114.58 2199.75 2107.85 2225.91 2094.4 2249.33C2081.45 2272.25 2063.26 2290.43 2039.84 2303.88C2016.92 2316.84 1991.01 2323.32 1962.12 2323.32H1295.46Z" fill="white"/>
</svg>
