<svg width="3600" height="3600" viewBox="0 0 3600 3600" fill="none" xmlns="http://www.w3.org/2000/svg">
<path d="M0 800C0 358.172 358.172 0 800 0H2800C3241.83 0 3600 358.172 3600 800V2800C3600 3241.83 3241.83 3600 2800 3600H800C358.172 3600 0 3241.83 0 2800V800Z" fill="#E8912D"/>
<path d="M2396 1000H1204C1086 1000 1000 1086 1000 1204V2396C1000 2514 1086 2600 1204 2600H2396C2514 2600 2600 2514 2600 2396V1204C2600 1086 2514 1000 2396 1000ZM2360 1400C2382 1400 2400 1418 2400 1440V2160C2400 2182 2382 2200 2360 2200H1240C1218 2200 1200 2182 1200 2160V1440C1200 1418 1218 1400 1240 1400H2360Z" fill="white"/>
</svg>
