<svg width="3600" height="3600" viewBox="0 0 3600 3600" fill="none" xmlns="http://www.w3.org/2000/svg">
<path d="M0 800C0 358.172 358.172 0 800 0H2800C3241.83 0 3600 358.172 3600 800V2800C3600 3241.83 3241.83 3600 2800 3600H800C358.172 3600 0 3241.83 0 2800V800Z" fill="#1D9BD1"/>
<path d="M2300 1400C2300 1372 2290 1346 2272 1328C2254 1310 2228 1300 2200 1300H2198H1402C1402 1300 1402 1300 1400 1300C1372 1300 1346 1310 1328 1328C1310 1346 1300 1372 1300 1400V1402V1598C1300 1658 1342 1700 1400 1700C1458 1700 1500 1658 1500 1598V1500H1700V2100H1602C1542 2100 1500 2142 1500 2200C1500 2258 1542 2300 1602 2300H1998C2058 2300 2100 2258 2100 2200C2100 2142 2058 2100 1998 2100H1900V1500H2100V1600C2100 1660 2142 1702 2200 1702C2258 1702 2300 1660 2300 1600V1402C2300 1402 2300 1402 2300 1400Z" fill="white"/>
</svg>
