<svg width="3600" height="3600" viewBox="0 0 3600 3600" fill="none" xmlns="http://www.w3.org/2000/svg">
<path d="M0 800C0 358.172 358.172 0 800 0H2800C3241.83 0 3600 358.172 3600 800V2800C3600 3241.83 3241.83 3600 2800 3600H800C358.172 3600 0 3241.83 0 2800V800Z" fill="#DE4E2B"/>
<path d="M1761.64 1200C2045.73 1200 2227.55 1325 2227.55 1581.82C2227.55 1850 2036.64 1977.27 1761.64 1977.27H1591.18V2400H1373V1200H1761.64ZM1761.64 1802.27C1904.82 1802.27 2004.82 1734.09 2004.82 1581.82C2004.82 1434.09 1909.36 1372.73 1761.64 1372.73H1591.18V1802.27H1761.64Z" fill="white"/>
</svg>
