<svg width="3600" height="3600" viewBox="0 0 3600 3600" fill="none" xmlns="http://www.w3.org/2000/svg">
<path d="M0 800C0 358.172 358.172 0 800 0H2800C3241.83 0 3600 358.172 3600 800V2800C3600 3241.83 3241.83 3600 2800 3600H800C358.172 3600 0 3241.83 0 2800V800Z" fill="#1264A3"/>
<path d="M2167.4 1199C2249.53 1228.33 2322.33 1272.87 2385.8 1332.6C2449.8 1392.33 2499.67 1462.73 2535.4 1543.8C2571.13 1624.33 2589 1709.93 2589 1800.6C2589 1891.27 2571.13 1977.13 2535.4 2058.2C2499.67 2138.73 2449.8 2208.87 2385.8 2268.6C2322.33 2328.33 2249.53 2372.87 2167.4 2402.2C2161.53 2404.33 2154.6 2405.4 2146.6 2405.4C2131.13 2405.4 2117.27 2399.8 2105 2388.6C2093.27 2377.93 2087.4 2363.8 2087.4 2346.2C2087.4 2333.4 2090.87 2321.93 2097.8 2311.8C2104.73 2301.13 2114.07 2293.67 2125.8 2289.4C2192.47 2265.4 2251.67 2229.13 2303.4 2180.6C2355.67 2132.07 2396.2 2075 2425 2009.4C2454.33 1943.8 2469 1874.2 2469 1800.6C2469 1727 2454.33 1657.4 2425 1591.8C2396.2 1526.2 2355.67 1469.13 2303.4 1420.6C2251.67 1372.07 2192.47 1335.8 2125.8 1311.8C2114.07 1307.53 2104.73 1300.33 2097.8 1290.2C2090.87 1279.53 2087.4 1267.8 2087.4 1255C2087.4 1237.4 2093.27 1223 2105 1211.8C2116.73 1200.6 2130.6 1195 2146.6 1195C2152.47 1195 2159.4 1196.33 2167.4 1199ZM1778.6 1240.6C1802.6 1240.6 1823.67 1249.13 1841.8 1266.2C1859.93 1282.73 1869 1304.87 1869 1332.6V2269.4C1869 2297.13 1859.93 2319.27 1841.8 2335.8C1824.2 2352.33 1803.13 2360.6 1778.6 2360.6C1766.87 2360.6 1755.67 2358.2 1745 2353.4C1734.33 2348.07 1722.87 2340.33 1710.6 2330.2L1455.4 2119.8C1439.4 2106.47 1424.73 2096.6 1411.4 2090.2C1398.6 2083.8 1383.67 2080.6 1366.6 2080.6H1208.2C1183.13 2080.6 1159.93 2074.47 1138.6 2062.2C1117.27 2049.4 1100.2 2032.33 1087.4 2011C1075.13 1989.13 1069 1965.67 1069 1940.6V1660.6C1069 1635 1075.13 1611.53 1087.4 1590.2C1100.2 1568.87 1117.27 1552.07 1138.6 1539.8C1159.93 1527 1183.13 1520.6 1208.2 1520.6H1366.6C1384.2 1520.6 1399.4 1517.67 1412.2 1511.8C1425 1505.4 1439.4 1495.53 1455.4 1482.2L1710.6 1270.2C1734.6 1250.47 1757.27 1240.6 1778.6 1240.6ZM2349 1800.6C2349 1857.13 2337.8 1910.73 2315.4 1961.4C2293 2011.53 2262.07 2055.27 2222.6 2092.6C2183.13 2129.4 2138.07 2157.4 2087.4 2176.6H2086.6C2080.73 2178.73 2073.8 2179.8 2065.8 2179.8C2050.33 2179.8 2036.47 2174.47 2024.2 2163.8C2012.47 2152.6 2006.6 2138.2 2006.6 2120.6C2006.6 2107.8 2010.07 2096.33 2017 2086.2C2023.93 2075.53 2033.27 2068.07 2045 2063.8C2080.73 2051 2112.47 2031.53 2140.2 2005.4C2167.93 1979.27 2189.53 1948.6 2205 1913.4C2221 1877.67 2229 1840.07 2229 1800.6C2229 1761.13 2221 1723.8 2205 1688.6C2189.53 1652.87 2167.93 1621.93 2140.2 1595.8C2112.47 1569.67 2080.73 1550.2 2045 1537.4C2033.27 1533.13 2023.93 1525.93 2017 1515.8C2010.07 1505.13 2006.6 1493.4 2006.6 1480.6C2006.6 1463 2012.47 1448.6 2024.2 1437.4C2035.93 1426.2 2049.8 1420.6 2065.8 1420.6C2071.67 1420.6 2078.6 1421.93 2086.6 1424.6H2087.4C2138.07 1443.8 2183.13 1472.07 2222.6 1509.4C2262.07 1546.2 2293 1589.93 2315.4 1640.6C2337.8 1690.73 2349 1744.07 2349 1800.6ZM2109 1800.6C2109 1834.2 2099.4 1864.6 2080.2 1891.8C2061 1918.47 2036.2 1937.93 2005.8 1950.2L2004.2 1951C1998.33 1953.13 1991.4 1954.2 1983.4 1954.2C1967.93 1954.2 1954.07 1948.87 1941.8 1938.2C1930.07 1927 1924.2 1912.6 1924.2 1895C1924.2 1882.2 1927.67 1870.73 1934.6 1860.6C1941.53 1849.93 1950.87 1842.47 1962.6 1838.2C1970.07 1835.53 1976.2 1830.73 1981 1823.8C1986.33 1816.87 1989 1809.13 1989 1800.6C1989 1792.07 1986.33 1784.33 1981 1777.4C1976.2 1770.47 1970.07 1765.67 1962.6 1763C1950.87 1758.73 1941.53 1751.53 1934.6 1741.4C1927.67 1730.73 1924.2 1719 1924.2 1706.2C1924.2 1688.6 1930.07 1674.2 1941.8 1663C1953.53 1651.8 1967.4 1646.2 1983.4 1646.2C1989.27 1646.2 1996.2 1647.53 2004.2 1650.2L2005.8 1651C2036.2 1663.27 2061 1683 2080.2 1710.2C2099.4 1736.87 2109 1767 2109 1800.6Z" fill="white"/>
</svg>
