<svg width="3600" height="3600" viewBox="0 0 3600 3600" fill="none" xmlns="http://www.w3.org/2000/svg">
<path d="M0 800C0 358.172 358.172 0 800 0H2800C3241.83 0 3600 358.172 3600 800V2800C3600 3241.83 3241.83 3600 2800 3600H800C358.172 3600 0 3241.83 0 2800V800Z" fill="#1D9BD1"/>
<path d="M2396 1050H1204C1086 1050 1000 1136 1000 1254V2346C1000 2464 1086 2550 1204 2550H2396C2514 2550 2600 2464 2600 2346V1254C2600 1136 2514 1050 2396 1050ZM1240 1250H2360C2382 1250 2400 1268 2400 1290V1842L1982 2192L1460 1770C1428 1744 1390 1730 1352 1730C1314 1730 1278 1742 1244 1770L1200 1806V1290C1200 1268 1218 1250 1240 1250ZM1920 1850C2030 1850 2120 1760 2120 1650C2120 1540 2030 1450 1920 1450C1810 1450 1720 1540 1720 1650C1720 1760 1810 1850 1920 1850Z" fill="white"/>
</svg>
