<svg width="36" height="36" viewBox="0 0 36 36" fill="none" xmlns="http://www.w3.org/2000/svg">
<rect width="36" height="36" rx="8" fill="#4A154B"/>
<path opacity="0.85" fill-rule="evenodd" clip-rule="evenodd" d="M11 14.25C11 13.0074 12.0074 12 13.25 12H22.75C23.9926 12 25 13.0074 25 14.25V19.75H20.25C19.4216 19.75 18.75 20.4216 18.75 21.25V26H13.25C12.0074 26 11 24.9926 11 23.75V14.25ZM20.25 25.2532L24.2532 21.25H20.25V25.2532ZM13.25 10.5C11.1789 10.5 9.5 12.1789 9.5 14.25V23.75C9.5 25.8211 11.1789 27.5 13.25 27.5H18.9855C19.7148 27.5 20.4143 27.2103 20.93 26.6945L25.6945 21.93C26.2103 21.4143 26.5 20.7148 26.5 19.9855V14.25C26.5 12.1789 24.8211 10.5 22.75 10.5H13.25Z" fill="white"/>
</svg>
