<svg width="3600" height="3600" viewBox="0 0 3600 3600" fill="none" xmlns="http://www.w3.org/2000/svg">
<path d="M0 800C0 358.172 358.172 0 800 0H2800C3241.83 0 3600 358.172 3600 800V2800C3600 3241.83 3241.83 3600 2800 3600H800C358.172 3600 0 3241.83 0 2800V800Z" fill="#E8912D"/>
<path d="M2317.94 1464.71C2392.94 1464.71 2450.29 1405.15 2450.29 1332.35C2450.29 1257.35 2392.94 1200 2317.94 1200C2245.15 1200 2185.59 1257.35 2185.59 1332.35C2185.59 1405.15 2245.15 1464.71 2317.94 1464.71ZM2128.24 2400H1958.38C1931.91 2400 1901.03 2391.18 1887.79 2351.47L1799.56 2115.44H1318.68L1230.44 2351.47C1221.62 2369.12 1199.56 2400 1159.85 2400H990L1446.62 1235.29H1669.41L2128.24 2400ZM1744.41 1961.03L1601.03 1572.79C1585.59 1524.26 1574.56 1495.59 1559.12 1433.82C1552.5 1455.88 1521.62 1557.35 1512.79 1575L1373.82 1961.03H1744.41ZM2426.03 1575V2400H2214.26V1575H2426.03Z" fill="white"/>
</svg>
