<svg width="3600" height="3600" viewBox="0 0 3600 3600" fill="none" xmlns="http://www.w3.org/2000/svg">
<path d="M0 800C0 358.172 358.172 0 800 0H2800C3241.83 0 3600 358.172 3600 800V2800C3600 3241.83 3241.83 3600 2800 3600H800C358.172 3600 0 3241.83 0 2800V800Z" fill="#1264A3"/>
<path d="M1438.24 1210C1708.41 1210 1899.78 1322.57 1899.78 1588.24C1899.78 1847.15 1710.66 1977.73 1438.24 1977.73H1267.14V2396.49H1051V1210H1438.24ZM1438.24 1806.62C1575.58 1806.62 1679.14 1743.58 1679.14 1588.24C1679.14 1453.15 1598.09 1378.86 1438.24 1378.86H1267.14V1806.62H1438.24ZM2534.68 1716.57C2518.92 1736.83 2498.65 1752.59 2460.38 1732.33C2417.6 1712.06 2361.32 1689.55 2305.03 1689.55C2230.74 1689.55 2174.45 1718.82 2174.45 1781.86C2174.45 1840.39 2241.99 1860.66 2307.29 1883.17C2478.39 1941.71 2588.71 1984.48 2588.71 2130.83C2588.71 2315.44 2433.36 2410 2251 2410C2149.69 2410 2032.61 2369.47 1958.32 2308.69L2005.6 2229.89C2014.6 2205.12 2050.62 2189.36 2093.4 2211.88C2160.94 2243.4 2176.7 2268.16 2262.26 2268.16C2338.81 2268.16 2399.59 2232.14 2399.59 2164.6C2399.59 2083.55 2298.28 2079.04 2190.21 2036.27C2068.64 2000.24 1983.08 1937.2 1983.08 1797.62C1983.08 1628.76 2122.67 1540.96 2302.78 1540.96C2410.85 1540.96 2500.91 1574.73 2579.71 1644.52L2534.68 1716.57Z" fill="white"/>
</svg>
