<svg width="3600" height="3600" viewBox="0 0 3600 3600" fill="none" xmlns="http://www.w3.org/2000/svg">
<path d="M0 800C0 358.172 358.172 0 800 0H2800C3241.83 0 3600 358.172 3600 800V2800C3600 3241.83 3241.83 3600 2800 3600H800C358.172 3600 0 3241.83 0 2800V800Z" fill="#007A5A"/>
<path d="M2396 1100H1204C1086 1100 1000 1186 1000 1304V2296C1000 2414 1086 2500 1204 2500H2396C2514 2500 2600 2414 2600 2296V1304C2600 1186 2514 1100 2396 1100ZM1240 1300H1700V1500H1200V1340C1200 1318 1218 1300 1240 1300ZM2360 1300C2382 1300 2400 1318 2400 1340V1500H1900V1300H2360ZM1700 1900H1200V1700H1700V1900ZM1900 1700H2400V1900H1900V1700ZM1240 2300C1218 2300 1200 2282 1200 2260V2100H1700V2300H1240ZM2360 2300H1900V2100H2400V2260C2400 2282 2382 2300 2360 2300Z" fill="white"/>
</svg>
