<svg width="3600" height="3600" viewBox="0 0 3600 3600" fill="none" xmlns="http://www.w3.org/2000/svg">
<path d="M0 800C0 358.172 358.172 0 800 0H2800C3241.83 0 3600 358.172 3600 800V2800C3600 3241.83 3241.83 3600 2800 3600H800C358.172 3600 0 3241.83 0 2800V800Z" fill="#DE4E2B"/>
<path d="M1614.5 2393.55C1664.5 2409.55 1724.5 2391.55 1744.5 2331.55L2044.5 1335.55C2060.5 1277.55 2040.5 1225.55 1986.5 1205.55C1936.5 1189.55 1876.5 1207.55 1856.5 1267.55L1556.5 2263.55C1540.5 2321.55 1560.5 2373.55 1614.5 2393.55ZM1420.5 2115.55C1458.5 2081.55 1462.5 2021.55 1416.5 1975.55L1242.5 1799.55L1416.5 1623.55C1458.5 1581.55 1462.5 1521.55 1420.5 1483.55C1382.5 1441.55 1326.5 1433.55 1276.5 1483.55L1034.5 1727.55C988.5 1773.55 988.5 1825.55 1034.5 1871.55L1276.5 2115.55C1322.5 2161.55 1380.5 2159.55 1420.5 2115.55ZM2180.5 2115.55C2218.5 2157.55 2274.5 2165.55 2324.5 2115.55L2566.5 1871.55C2612.5 1825.55 2612.5 1773.55 2566.5 1727.55L2324.5 1483.55C2278.5 1437.55 2220.5 1439.55 2180.5 1483.55C2142.5 1517.55 2138.5 1577.55 2184.5 1623.55L2358.5 1799.55L2184.5 1975.55C2142.5 2017.55 2138.5 2077.55 2180.5 2115.55Z" fill="white"/>
</svg>
