<svg width="3600" height="3600" viewBox="0 0 3600 3600" fill="none" xmlns="http://www.w3.org/2000/svg">
<path d="M0 800C0 358.172 358.172 0 800 0H2800C3241.83 0 3600 358.172 3600 800V2800C3600 3241.83 3241.83 3600 2800 3600H800C358.172 3600 0 3241.83 0 2800V800Z" fill="#1264A3"/>
<path d="M1800.5 2050C1856.5 2050 1900.5 2006 1900.5 1950C1900.5 1910 1916.5 1894 1966.5 1850C2016.5 1804 2100.5 1730 2100.5 1600C2100.5 1436 1964.5 1300 1800.5 1300C1636.5 1300 1500.5 1436 1500.5 1600C1500.5 1656 1544.5 1700 1600.5 1700C1656.5 1700 1700.5 1656 1700.5 1600C1700.5 1546 1746.5 1500 1800.5 1500C1854.5 1500 1900.5 1546 1900.5 1600C1900.5 1640 1884.5 1656 1834.5 1700C1784.5 1746 1700.5 1820 1700.5 1950C1700.5 2006 1744.5 2050 1800.5 2050ZM1226.5 2116C1272.5 2162 1330.5 2160 1374.5 2116C1408.5 2082 1412.5 2022 1366.5 1976L1242.5 1850L1366.5 1724C1408.5 1682 1412.5 1622 1372.5 1582C1332.5 1542 1276.5 1534 1226.5 1584L1034.5 1778C988.5 1824 988.5 1876 1034.5 1922L1226.5 2116ZM2228.5 2118C2268.5 2158 2324.5 2166 2374.5 2116L2566.5 1922C2612.5 1876 2612.5 1824 2566.5 1778L2374.5 1584C2328.5 1538 2270.5 1540 2232.5 1578C2192.5 1618 2188.5 1678 2234.5 1724L2358.5 1850L2234.5 1976C2192.5 2018 2188.5 2078 2228.5 2118ZM1800.5 2300C1856.5 2300 1900.5 2256 1900.5 2202C1900.5 2146 1856.5 2100 1800.5 2100C1744.5 2100 1700.5 2146 1700.5 2202C1700.5 2256 1744.5 2300 1800.5 2300Z" fill="white"/>
</svg>
