<?xml version="1.0" encoding="utf-8"?>
<!-- Generator: Adobe Illustrator 25.4.1, SVG Export Plug-In . SVG Version: 6.00 Build 0)  -->
<svg version="1.1" id="Calque_1" xmlns="http://www.w3.org/2000/svg" xmlns:xlink="http://www.w3.org/1999/xlink" x="0px" y="0px"
	 viewBox="0 0 479.2 313.5" style="enable-background:new 0 0 479.2 313.5;" xml:space="preserve">
<style type="text/css">
	.st0{fill:#FFFFFF;}
	.st1{fill:#3EA8E0;}
	.st2{fill:none;}
</style>
<g>
	<path class="st0" d="M3.5,245.2v-34.2h7.2v28.2h13.9v6H3.5z"/>
	<path class="st0" d="M42.2,211.1l0.3,0.5c-0.8,3.1-2.1,6.8-4.1,11.2h-5.1c1.1-4.6,1.9-8.5,2.3-11.7H42.2z"/>
	<path class="st0" d="M84.9,228.1c0,5.7-1.4,10-4.2,13s-6.8,4.6-12.1,4.6s-9.3-1.5-12.1-4.6s-4.2-7.4-4.2-13.1c0-5.7,1.4-10,4.2-13
		c2.8-3,6.8-4.5,12.1-4.5s9.3,1.5,12,4.5S84.9,222.4,84.9,228.1z M60,228.1c0,3.8,0.7,6.7,2.2,8.6s3.6,2.9,6.5,2.9
		c5.8,0,8.7-3.8,8.7-11.5c0-7.7-2.9-11.5-8.6-11.5c-2.9,0-5.1,1-6.5,2.9S60,224.3,60,228.1z"/>
	<path class="st0" d="M98.5,211.1h10.6c4.8,0,8.4,0.7,10.6,2.1c2.2,1.4,3.3,3.6,3.3,6.6c0,2-0.5,3.7-1.4,5c-1,1.3-2.2,2.1-3.8,2.4
		v0.2c2.2,0.5,3.7,1.4,4.7,2.7c1,1.3,1.4,3.1,1.4,5.3c0,3.1-1.1,5.5-3.4,7.3s-5.3,2.6-9.2,2.6H98.5V211.1z M105.8,224.6h4.2
		c2,0,3.4-0.3,4.3-0.9c0.9-0.6,1.3-1.6,1.3-3c0-1.3-0.5-2.2-1.4-2.8c-1-0.6-2.5-0.9-4.5-0.9h-3.8V224.6z M105.8,230.3v8.9h4.7
		c2,0,3.5-0.4,4.4-1.1c1-0.8,1.4-1.9,1.4-3.5c0-2.8-2-4.3-6.1-4.3H105.8z"/>
	<path class="st0" d="M157.3,235.7c0,3.1-1.1,5.5-3.3,7.3c-2.2,1.8-5.3,2.7-9.3,2.7c-3.6,0-6.9-0.7-9.7-2.1v-6.7
		c2.3,1,4.3,1.8,5.9,2.2c1.6,0.4,3.1,0.6,4.4,0.6c1.6,0,2.8-0.3,3.7-0.9c0.8-0.6,1.3-1.5,1.3-2.7c0-0.7-0.2-1.3-0.6-1.8
		c-0.4-0.5-0.9-1-1.6-1.5c-0.7-0.5-2.2-1.3-4.4-2.3c-2.1-1-3.7-1.9-4.7-2.8c-1-0.9-1.9-2-2.5-3.2c-0.6-1.2-0.9-2.6-0.9-4.2
		c0-3,1-5.4,3.1-7.1c2-1.7,4.9-2.6,8.5-2.6c1.8,0,3.5,0.2,5.1,0.6c1.6,0.4,3.3,1,5.1,1.8l-2.3,5.6c-1.8-0.7-3.3-1.3-4.5-1.6
		c-1.2-0.3-2.4-0.4-3.5-0.4c-1.4,0-2.4,0.3-3.2,1c-0.7,0.6-1.1,1.5-1.1,2.5c0,0.6,0.1,1.2,0.4,1.7c0.3,0.5,0.8,0.9,1.4,1.4
		c0.6,0.4,2.2,1.2,4.6,2.4c3.2,1.5,5.4,3.1,6.6,4.6C156.7,231.6,157.3,233.5,157.3,235.7z"/>
	<path class="st0" d="M189.7,245.2H170v-34.2h19.7v5.9h-12.4v7.5h11.6v5.9h-11.6v8.8h12.4V245.2z"/>
	<path class="st0" d="M210.6,232.1v13.1h-7.2v-34.2h10c4.6,0,8.1,0.8,10.3,2.5s3.3,4.3,3.3,7.7c0,2-0.6,3.8-1.7,5.4
		c-1.1,1.6-2.7,2.8-4.7,3.7c5.1,7.7,8.5,12.6,10,14.9h-8l-8.2-13.1H210.6z M210.6,226.2h2.3c2.3,0,4-0.4,5.1-1.1s1.6-2,1.6-3.6
		c0-1.6-0.6-2.8-1.7-3.5c-1.1-0.7-2.8-1-5.2-1h-2.2V226.2z"/>
	<path class="st0" d="M260.9,211.1h7.3l-11.6,34.2h-7.9l-11.6-34.2h7.3l6.4,20.3c0.4,1.2,0.7,2.6,1.1,4.2s0.6,2.7,0.7,3.3
		c0.2-1.4,0.8-3.9,1.8-7.5L260.9,211.1z"/>
	<path class="st0" d="M300,245.2l-2.5-8.1H285l-2.5,8.1h-7.8l12.1-34.3h8.9l12.1,34.3H300z M295.8,231c-2.3-7.4-3.6-11.5-3.9-12.5
		s-0.5-1.7-0.6-2.3c-0.5,2-2,6.9-4.4,14.8H295.8z"/>
	<path class="st0" d="M331.8,245.2h-7.2v-28.1h-9.3v-6H341v6h-9.3V245.2z"/>
	<path class="st0" d="M383.8,228.1c0,5.7-1.4,10-4.2,13c-2.8,3-6.8,4.6-12.1,4.6s-9.3-1.5-12.1-4.6c-2.8-3-4.2-7.4-4.2-13.1
		c0-5.7,1.4-10,4.2-13c2.8-3,6.8-4.5,12.1-4.5s9.3,1.5,12,4.5S383.8,222.4,383.8,228.1z M358.9,228.1c0,3.8,0.7,6.7,2.2,8.6
		s3.6,2.9,6.5,2.9c5.8,0,8.7-3.8,8.7-11.5c0-7.7-2.9-11.5-8.6-11.5c-2.9,0-5.1,1-6.5,2.9S358.9,224.3,358.9,228.1z"/>
	<path class="st0" d="M397.4,245.2v-34.2h7.2v34.2H397.4z"/>
	<path class="st0" d="M427,232.1v13.1h-7.2v-34.2h10c4.6,0,8.1,0.8,10.3,2.5s3.3,4.3,3.3,7.7c0,2-0.6,3.8-1.7,5.4s-2.7,2.8-4.7,3.7
		c5.1,7.7,8.5,12.6,10,14.9h-8l-8.2-13.1H427z M427,226.2h2.3c2.3,0,4-0.4,5.1-1.1s1.6-2,1.6-3.6c0-1.6-0.6-2.8-1.7-3.5
		c-1.1-0.7-2.8-1-5.2-1H427V226.2z"/>
	<path class="st0" d="M477.5,245.2h-19.7v-34.2h19.7v5.9h-12.4v7.5h11.6v5.9h-11.6v8.8h12.4V245.2z"/>
	<path class="st0" d="M12.7,275.2c1.8,0,3.4,0.3,4.8,1s2.5,1.8,3.6,3.4h0.1c-0.1-2-0.1-3.9-0.1-5.8v-9.1h2.3v36.4h-1.5l-0.6-3.9
		h-0.2c-1.9,2.9-4.7,4.3-8.3,4.3c-3.5,0-6.2-1.1-8-3.3S2,292.9,2,288.7c0-4.4,0.9-7.8,2.8-10.1S9.2,275.2,12.7,275.2z M12.7,277.3
		c-2.8,0-4.9,1-6.3,2.9s-2.1,4.8-2.1,8.5c0,7.2,2.8,10.8,8.4,10.8c2.9,0,5-0.8,6.3-2.5c1.3-1.7,2-4.4,2-8.2v-0.4
		c0-3.9-0.7-6.7-2-8.5C17.8,278.1,15.7,277.3,12.7,277.3z"/>
	<path class="st0" d="M42.2,301.5c-3.7,0-6.6-1.1-8.6-3.4c-2.1-2.3-3.1-5.5-3.1-9.6c0-4.1,1-7.3,3-9.7c2-2.4,4.7-3.7,8.1-3.7
		c3,0,5.4,1,7.1,3.1c1.7,2.1,2.6,4.9,2.6,8.5v1.9H32.9c0,3.5,0.8,6.2,2.4,8c1.6,1.8,3.9,2.8,6.9,2.8c1.4,0,2.7-0.1,3.8-0.3
		s2.5-0.6,4.2-1.3v2.1c-1.4,0.6-2.8,1-4,1.3S43.6,301.5,42.2,301.5z M41.5,277.2c-2.4,0-4.4,0.8-5.9,2.4c-1.5,1.6-2.3,3.9-2.6,7
		h15.7c0-2.9-0.6-5.2-1.9-6.9C45.5,278.1,43.8,277.2,41.5,277.2z"/>
	<path class="st0" d="M73.9,294.5c0,2.3-0.9,4-2.6,5.2c-1.7,1.2-4.2,1.8-7.4,1.8c-3.4,0-6.1-0.5-8.1-1.6v-2.5
		c2.6,1.3,5.2,1.9,8.1,1.9c2.5,0,4.4-0.4,5.7-1.3c1.3-0.8,2-1.9,2-3.3c0-1.3-0.5-2.4-1.6-3.2c-1-0.9-2.7-1.7-5.1-2.6
		c-2.5-0.9-4.3-1.7-5.4-2.4s-1.8-1.4-2.3-2.2s-0.8-1.8-0.8-3c0-1.9,0.8-3.4,2.4-4.5c1.6-1.1,3.8-1.7,6.7-1.7c2.7,0,5.3,0.5,7.8,1.5
		l-0.9,2.1c-2.5-1-4.8-1.5-6.9-1.5c-2.1,0-3.7,0.3-4.9,1c-1.2,0.7-1.8,1.6-1.8,2.9c0,1.3,0.5,2.4,1.4,3.2c0.9,0.8,2.8,1.7,5.5,2.7
		c2.3,0.8,4,1.6,5,2.2c1,0.7,1.8,1.4,2.3,2.3S73.9,293.3,73.9,294.5z"/>
	<path class="st0" d="M103.1,301.5c-3.6,0-6.5-1.1-8.5-3.4c-2.1-2.3-3.1-5.5-3.1-9.6c0-4.2,1.1-7.5,3.2-9.8c2.1-2.3,5.1-3.5,8.8-3.5
		c2.2,0,4.3,0.4,6.3,1.1l-0.6,2.1c-2.2-0.7-4.1-1.1-5.7-1.1c-3.1,0-5.5,1-7.1,2.9c-1.6,1.9-2.4,4.7-2.4,8.3c0,3.4,0.8,6.1,2.4,8.1
		c1.6,1.9,3.8,2.9,6.7,2.9c2.3,0,4.4-0.4,6.4-1.2v2.1C107.8,301.1,105.7,301.5,103.1,301.5z"/>
	<path class="st0" d="M131.1,301.1l-0.6-4h-0.2c-1.3,1.6-2.6,2.8-3.9,3.5c-1.3,0.7-2.9,1-4.8,1c-2.5,0-4.4-0.6-5.8-1.9
		c-1.4-1.3-2.1-3-2.1-5.3c0-2.5,1-4.4,3.1-5.8c2.1-1.4,5.1-2.1,9-2.2l4.8-0.1v-1.7c0-2.4-0.5-4.2-1.5-5.5c-1-1.2-2.6-1.8-4.7-1.8
		c-2.4,0-4.8,0.7-7.3,2l-0.9-2c2.8-1.3,5.5-2,8.3-2c2.8,0,4.9,0.7,6.3,2.2c1.4,1.4,2.1,3.7,2.1,6.8v16.9H131.1z M121.7,299.4
		c2.7,0,4.8-0.8,6.4-2.3c1.6-1.6,2.3-3.7,2.3-6.5v-2.5l-4.4,0.2c-3.6,0.2-6.1,0.7-7.6,1.7c-1.5,0.9-2.3,2.4-2.3,4.4
		c0,1.6,0.5,2.8,1.5,3.7C118.6,299,119.9,299.4,121.7,299.4z"/>
	<path class="st0" d="M172.7,301.1v-16.7c0-2.5-0.5-4.3-1.4-5.4c-1-1.1-2.4-1.7-4.4-1.7c-2.6,0-4.5,0.7-5.8,2.1
		c-1.2,1.4-1.9,3.7-1.9,6.8v14.9h-2.4v-17.4c0-4.3-2-6.4-5.9-6.4c-2.7,0-4.6,0.8-5.8,2.3c-1.2,1.6-1.8,4-1.8,7.4v14H141v-25.4h1.9
		l0.5,3.5h0.1c0.7-1.3,1.7-2.2,3-2.9s2.7-1,4.3-1c4,0,6.6,1.5,7.7,4.5h0.1c0.8-1.4,1.9-2.6,3.3-3.3c1.4-0.8,3-1.2,4.8-1.2
		c2.8,0,4.9,0.7,6.2,2.2c1.4,1.5,2.1,3.8,2.1,7.1v16.6H172.7z"/>
	<path class="st0" d="M194.1,301.5c-3.9,0-6.8-1.5-8.6-4.4h-0.2l0.1,2c0.1,1.2,0.1,2.4,0.1,3.8v9.7h-2.3v-36.9h2l0.4,3.6h0.1
		c1.7-2.7,4.5-4.1,8.4-4.1c3.4,0,6,1.1,7.8,3.4s2.7,5.5,2.7,9.8c0,4.2-0.9,7.4-2.8,9.7C200,300.4,197.4,301.5,194.1,301.5z
		 M194.1,299.5c2.6,0,4.6-1,6-2.9c1.4-1.9,2.1-4.6,2.1-8.1c0-7.5-2.7-11.2-8.1-11.2c-3,0-5.1,0.8-6.5,2.4c-1.4,1.6-2.1,4.3-2.1,8
		v0.7c0,4,0.7,6.8,2,8.5S191.1,299.5,194.1,299.5z"/>
	<path class="st0" d="M227.5,294.5c0,2.3-0.9,4-2.6,5.2c-1.7,1.2-4.2,1.8-7.4,1.8c-3.4,0-6.1-0.5-8.1-1.6v-2.5
		c2.6,1.3,5.2,1.9,8.1,1.9c2.5,0,4.4-0.4,5.7-1.3s2-1.9,2-3.3c0-1.3-0.5-2.4-1.6-3.2c-1-0.9-2.7-1.7-5.1-2.6
		c-2.5-0.9-4.3-1.7-5.4-2.4s-1.8-1.4-2.3-2.2c-0.5-0.8-0.8-1.8-0.8-3c0-1.9,0.8-3.4,2.4-4.5c1.6-1.1,3.8-1.7,6.7-1.7
		c2.7,0,5.3,0.5,7.8,1.5l-0.9,2.1c-2.5-1-4.8-1.5-6.9-1.5c-2.1,0-3.7,0.3-4.9,1c-1.2,0.7-1.8,1.6-1.8,2.9c0,1.3,0.5,2.4,1.4,3.2
		c0.9,0.8,2.8,1.7,5.5,2.7c2.3,0.8,4,1.6,5,2.2c1,0.7,1.8,1.4,2.3,2.3C227.2,292.3,227.5,293.3,227.5,294.5z"/>
	<path class="st0" d="M255.8,275.2c1.8,0,3.4,0.3,4.8,1s2.5,1.8,3.6,3.4h0.1c-0.1-2-0.1-3.9-0.1-5.8v-9.1h2.3v36.4h-1.5l-0.6-3.9
		h-0.2c-1.9,2.9-4.7,4.3-8.3,4.3c-3.5,0-6.2-1.1-8-3.3s-2.8-5.4-2.8-9.5c0-4.4,0.9-7.8,2.8-10.1
		C249.6,276.3,252.3,275.2,255.8,275.2z M255.8,277.3c-2.8,0-4.9,1-6.3,2.9s-2.1,4.8-2.1,8.5c0,7.2,2.8,10.8,8.4,10.8
		c2.9,0,5-0.8,6.3-2.5c1.3-1.7,2-4.4,2-8.2v-0.4c0-3.9-0.7-6.7-2-8.5C260.8,278.1,258.7,277.3,255.8,277.3z"/>
	<path class="st0" d="M285.2,301.5c-3.7,0-6.6-1.1-8.6-3.4c-2.1-2.3-3.1-5.5-3.1-9.6c0-4.1,1-7.3,3-9.7c2-2.4,4.7-3.7,8.1-3.7
		c3,0,5.4,1,7.1,3.1s2.6,4.9,2.6,8.5v1.9h-18.3c0,3.5,0.8,6.2,2.4,8c1.6,1.8,3.9,2.8,6.9,2.8c1.4,0,2.7-0.1,3.8-0.3s2.5-0.6,4.2-1.3
		v2.1c-1.4,0.6-2.8,1-4,1.3C288,301.4,286.7,301.5,285.2,301.5z M284.5,277.2c-2.4,0-4.4,0.8-5.9,2.4c-1.5,1.6-2.3,3.9-2.6,7h15.7
		c0-2.9-0.6-5.2-1.9-6.9C288.6,278.1,286.8,277.2,284.5,277.2z"/>
	<path class="st0" d="M323.6,275.2c1.1,0,2.2,0.1,3.5,0.3l-0.4,2.2c-1.1-0.3-2.2-0.4-3.3-0.4c-2.2,0-3.9,0.9-5.3,2.8
		c-1.4,1.8-2.1,4.2-2.1,7v14h-2.3v-25.4h2l0.2,4.6h0.2c1-1.9,2.2-3.2,3.3-3.9S322,275.2,323.6,275.2z"/>
	<path class="st0" d="M342.5,301.5c-3.7,0-6.6-1.1-8.6-3.4c-2.1-2.3-3.1-5.5-3.1-9.6c0-4.1,1-7.3,3-9.7c2-2.4,4.7-3.7,8.1-3.7
		c3,0,5.4,1,7.1,3.1c1.7,2.1,2.6,4.9,2.6,8.5v1.9h-18.3c0,3.5,0.8,6.2,2.4,8c1.6,1.8,3.9,2.8,6.9,2.8c1.4,0,2.7-0.1,3.8-0.3
		s2.5-0.6,4.2-1.3v2.1c-1.4,0.6-2.8,1-4,1.3C345.3,301.4,344,301.5,342.5,301.5z M341.8,277.2c-2.4,0-4.4,0.8-5.9,2.4
		c-1.5,1.6-2.3,3.9-2.6,7h15.7c0-2.9-0.6-5.2-1.9-6.9C345.9,278.1,344.1,277.2,341.8,277.2z M338.6,271.7c1.1-1.2,2.3-2.6,3.4-4
		c1.1-1.4,1.9-2.5,2.3-3.3h3.3v0.4c-0.6,0.8-1.5,1.9-2.9,3.2c-1.3,1.3-2.8,2.7-4.5,4h-1.6V271.7z"/>
	<path class="st0" d="M368,277.7h-6v23.4h-2.3v-23.4H355v-1.4l4.7-0.9v-2c0-3.1,0.6-5.4,1.7-6.9c1.1-1.5,3-2.2,5.6-2.2
		c1.4,0,2.8,0.2,4.2,0.6l-0.5,2c-1.2-0.4-2.5-0.6-3.7-0.6c-1.8,0-3.1,0.5-3.8,1.6c-0.8,1.1-1.1,2.8-1.1,5.2v2.4h6V277.7z"/>
	<path class="st0" d="M374.9,275.7v16.5c0,2.6,0.5,4.4,1.6,5.6c1.1,1.2,2.7,1.7,5,1.7c3,0,5.2-0.8,6.7-2.3s2.1-4,2.1-7.5v-14h2.3
		v25.4h-2l-0.4-3.5h-0.1c-1.7,2.6-4.6,4-8.8,4c-5.8,0-8.7-3.1-8.7-9.3v-16.6H374.9z"/>
	<path class="st0" d="M420.9,275.7v1.6l-5.3,0.3c1.4,1.7,2.1,3.7,2.1,5.7c0,2.4-0.8,4.4-2.4,5.9c-1.6,1.5-3.8,2.3-6.6,2.3
		c-1.2,0-2,0-2.4-0.1c-0.9,0.5-1.6,1.1-2.1,1.7s-0.7,1.3-0.7,2.1c0,0.8,0.3,1.4,0.9,1.8c0.6,0.4,1.6,0.6,3.1,0.6h4.4
		c2.8,0,4.9,0.6,6.3,1.7c1.5,1.1,2.2,2.8,2.2,4.9c0,2.7-1.1,4.7-3.3,6.2c-2.2,1.5-5.3,2.2-9.3,2.2c-3.2,0-5.7-0.6-7.4-1.8
		s-2.6-2.9-2.6-5.1c0-1.7,0.5-3.2,1.6-4.3c1.1-1.2,2.6-1.9,4.4-2.4c-0.8-0.3-1.4-0.8-1.8-1.4s-0.7-1.3-0.7-2.1
		c0-1.7,1.1-3.2,3.2-4.5c-1.5-0.6-2.6-1.6-3.5-2.9c-0.8-1.3-1.2-2.8-1.2-4.5c0-2.5,0.8-4.6,2.4-6.1c1.6-1.5,3.8-2.3,6.5-2.3
		c1.7,0,3,0.2,3.9,0.5H420.9z M400.4,305.4c0,3.5,2.6,5.2,7.8,5.2c6.7,0,10-2.1,10-6.4c0-1.5-0.5-2.6-1.6-3.3c-1-0.7-2.7-1-5.1-1
		h-4.2C402.7,299.9,400.4,301.7,400.4,305.4z M402.3,283.6c0,2,0.6,3.5,1.8,4.6s2.8,1.6,4.8,1.6c2.1,0,3.7-0.5,4.9-1.6
		s1.7-2.6,1.7-4.7c0-2.2-0.6-3.8-1.7-4.9c-1.2-1.1-2.8-1.6-4.9-1.6c-2,0-3.6,0.6-4.8,1.7C402.9,279.9,402.3,281.5,402.3,283.6z"/>
	<path class="st0" d="M425.8,268.6c0-1.5,0.5-2.2,1.5-2.2c0.5,0,0.9,0.2,1.1,0.6c0.3,0.4,0.4,0.9,0.4,1.7c0,0.7-0.1,1.3-0.4,1.7
		c-0.3,0.4-0.7,0.6-1.1,0.6C426.3,270.9,425.8,270.1,425.8,268.6z M428.4,301.1h-2.3v-25.4h2.3V301.1z"/>
	<path class="st0" d="M447.2,301.5c-3.7,0-6.6-1.1-8.6-3.4c-2.1-2.3-3.1-5.5-3.1-9.6c0-4.1,1-7.3,3-9.7c2-2.4,4.7-3.7,8.1-3.7
		c3,0,5.4,1,7.1,3.1s2.6,4.9,2.6,8.5v1.9h-18.3c0,3.5,0.8,6.2,2.4,8c1.6,1.8,3.9,2.8,6.9,2.8c1.4,0,2.7-0.1,3.8-0.3s2.5-0.6,4.2-1.3
		v2.1c-1.4,0.6-2.8,1-4,1.3C450,301.4,448.7,301.5,447.2,301.5z M446.5,277.2c-2.4,0-4.4,0.8-5.9,2.4c-1.5,1.6-2.3,3.9-2.6,7h15.7
		c0-2.9-0.6-5.2-1.9-6.9C450.6,278.1,448.8,277.2,446.5,277.2z M443.3,271.7c1.1-1.2,2.3-2.6,3.4-4c1.1-1.4,1.9-2.5,2.3-3.3h3.3v0.4
		c-0.6,0.8-1.5,1.9-2.9,3.2c-1.3,1.3-2.8,2.7-4.5,4h-1.6V271.7z"/>
	<path class="st0" d="M479,294.5c0,2.3-0.9,4-2.6,5.2c-1.7,1.2-4.2,1.8-7.4,1.8c-3.4,0-6.1-0.5-8.1-1.6v-2.5
		c2.6,1.3,5.2,1.9,8.1,1.9c2.5,0,4.4-0.4,5.7-1.3c1.3-0.8,2-1.9,2-3.3c0-1.3-0.5-2.4-1.6-3.2c-1-0.9-2.7-1.7-5.1-2.6
		c-2.5-0.9-4.3-1.7-5.4-2.4s-1.8-1.4-2.3-2.2s-0.8-1.8-0.8-3c0-1.9,0.8-3.4,2.4-4.5c1.6-1.1,3.8-1.7,6.7-1.7c2.7,0,5.3,0.5,7.8,1.5
		l-0.9,2.1c-2.5-1-4.8-1.5-6.9-1.5c-2.1,0-3.7,0.3-4.9,1c-1.2,0.7-1.8,1.6-1.8,2.9c0,1.3,0.5,2.4,1.4,3.2c0.9,0.8,2.8,1.7,5.5,2.7
		c2.3,0.8,4,1.6,5,2.2c1,0.7,1.8,1.4,2.3,2.3C478.7,292.3,479,293.3,479,294.5z"/>
</g>
<g>
	<g>
		<g>
			<path class="st0" d="M337.2,50.4c-3.9-5.1-9-9.1-15-11.8c-6.1-2.8-12.3-4.1-18.8-4.1c-7.9,0-15,1.5-21.4,4.4
				c-6.4,3-11.8,7-16.4,12.1c-4.5,5.1-8.1,11.2-10.6,18.1c-2.5,6.9-3.8,14.3-3.8,22.2c0,7.4,1.2,14.3,3.6,20.9
				c2.4,6.6,5.8,12.4,10.3,17.4c4.5,5,9.9,9,16.4,11.8c6.4,2.9,13.8,4.3,21.9,4.3c8,0,15.1-1.6,21.1-4.9c6.1-3.3,11.2-7.9,15.4-13.8
				l16,12c-1.1,1.5-2.9,3.5-5.5,6.2c-2.6,2.7-6.1,5.4-10.5,8.1c-4.3,2.7-9.6,5.1-15.7,7.1c-6.1,2-13.2,3.1-21.2,3.1
				c-11.1,0-21-2.1-29.9-6.3c-8.9-4.2-16.5-9.7-22.7-16.6c-6.3-6.8-11-14.6-14.3-23.2c-3.3-8.6-4.9-17.3-4.9-26.2
				c0-10.8,1.8-20.8,5.3-29.9c3.6-9.1,8.5-17,14.9-23.7c6.4-6.6,14-11.8,23-15.5c8.9-3.7,18.8-5.5,29.6-5.5c9.2,0,18.3,1.8,27.1,5.3
				c8.9,3.6,16.2,9,21.8,16.4L337.2,50.4z"/>
		</g>
	</g>
	<g>
		<g>
			<path class="st0" d="M378.9,20.2h49.2c8.9,0,16.3,1.2,22.1,3.7c5.8,2.4,10.4,5.5,13.7,9.3c3.4,3.8,5.7,8,7,12.6
				c1.3,4.7,2,9.2,2,13.5c0,4.5-0.8,8.8-2.4,12.9c-1.6,4.1-3.9,7.9-6.8,11.3c-3,3.4-6.6,6.2-10.9,8.5c-4.3,2.3-9.1,3.7-14.3,4.2
				l39.7,63.8h-23.7L419,98.4h-21.1V160h-19V20.2z M397.9,81.8h24.9c3.7,0,7.3-0.3,11-0.9c3.6-0.6,6.8-1.7,9.7-3.3
				c2.8-1.6,5.1-3.8,6.8-6.8c1.7-3,2.6-6.8,2.6-11.5s-0.9-8.6-2.6-11.6c-1.7-3-4-5.2-6.8-6.8c-2.8-1.6-6.1-2.7-9.7-3.3
				c-3.6-0.6-7.3-0.9-11-0.9h-24.9V81.8z"/>
		</g>
	</g>
	<g>
		<g>
			<rect x="171.1" y="85" class="st1" width="44.4" height="17.3"/>
		</g>
	</g>
	<g>
		<g>
			<path class="st1" d="M118.2,53.2c2.7,2.4,0.8,5-0.8,6s-5,1.5-7.7,1c-2.6-0.5-6.1-1.4-7.7-1.9s-4.6-0.5-6.7,0
				c-2.1,0.5-5.1,0.5-6.7,0c-1.6-0.5-2-2.7-1-4.8c1.1-2.1,3.6-3.8,5.8-3.8s8.1-4.3,10.2-5.3S115.5,50.8,118.2,53.2z"/>
		</g>
	</g>
	<g>
		<path class="st2" d="M158.3,90.1"/>
	</g>
	<g>
		<path class="st0" d="M1.2,60.3C3.1,54,5.7,48,9.1,42.3c3.5-5.6,7.6-10.8,12.3-15.5c4.7-4.7,10-8.7,15.7-12.3
			c2.9-1.6,5.8-3.4,8.8-4.8l2.3-1.1l1.1-0.5c0.4-0.2,0.8-0.3,1.2-0.5l4.7-1.8C56,5.4,56.8,5.2,57.6,5L60,4.2c1.6-0.5,3.2-1,4.9-1.3
			l4.9-1.1c1.7-0.3,3.3-0.5,5-0.8l2.5-0.4c0.8-0.1,1.7-0.1,2.5-0.2l5.1-0.4c3.4-0.1,6.8-0.1,10.2,0.1c13.6,0.8,27.1,4.4,39.5,10.8
			l-5.3,9.6C118.7,14.1,106.8,10,94.3,8.4C91.2,8,88.1,7.7,85,7.6l-4.7,0c-0.8,0-1.6,0-2.4,0l-2.4,0.2C74,8,72.4,8,70.8,8.2
			l-4.7,0.7c-1.6,0.2-3.1,0.6-4.7,0.9l-2.3,0.5c-0.8,0.2-1.6,0.3-2.3,0.6l-4.6,1.4c-0.4,0.1-0.8,0.2-1.1,0.4L50,13.2l-2.2,0.9
			c-3,1.1-5.8,2.6-8.7,3.9c-5.6,3.1-11,6.6-15.9,10.8c-4.8,4.3-9.2,9-13,14.3C6.6,48.4,3.5,54.2,1.2,60.3z"/>
	</g>
	<g>
		<path class="st0" d="M119.3,162.4c-13.7,9-30.2,14.4-47,15.4c-16.8,1.1-34.3-2.1-49.9-9.8l5.3-9.6c13,8.3,28.6,13.1,44.5,13.9
			C88.2,173.2,104.6,169.9,119.3,162.4z"/>
	</g>
	<g>
		<path class="st0" d="M80.5,31.4c32.5,0,59,26.5,59,59s-26.5,59-59,59s-59-26.5-59-59S47.9,31.4,80.5,31.4 M80.5,16.5
			c-40.9,0-74,33.1-74,74c0,40.9,33.1,74,74,74s74-33.1,74-74C154.4,49.6,121.3,16.5,80.5,16.5L80.5,16.5z"/>
	</g>
	<g>
		<path class="st1" d="M26.7,76.7c1.4,0.9,3.4,1.7,3.6,2.4c0.9,2.8,3,5.9,4.5,6.9c1.6,1.1,4.2,2.8,5.8,3.8c1.6,1.1,2.9,0.2,2.9-1.9
			s-0.9-4.7-1.9-5.8c-1.1-1.1-1.9-3.2-1.9-4.8c0-1.6,3-3.3,6.7-3.8c3.7-0.5,8.9-2.3,11.5-3.8c2.6-1.6,6.1-5,7.7-7.7
			c1.6-2.6,4.2-5.2,5.8-5.8c1.6-0.5,3.3-2.3,3.8-3.8c0.5-1.6-1.6-3.3-4.8-3.8S61.2,46,60,42.3c-0.3-1-1-1.5-1.9-1.7
			C42.8,47.2,31.1,60.5,26.7,76.7z"/>
	</g>
	<path class="st1" d="M130.3,69c-1.3,0.2-5.4,0.8-8.1,1.7c-3.2,1.1-8.4,1.5-11.5,1c-3.2-0.5-6.6-2.3-7.7-3.8
		c-1.1-1.6-4.5-2.9-7.7-2.9c-3.2,0-7.1,1.3-8.6,2.9c-1.1,1.1-1.9,3.7-2,6.4c1.9,0.5,3.7,1.3,5.2,2.4c2.3,0,4.2,1.3,4.5,4.6
		c1.4,2.1,2.4,4.6,2.7,7.3c2.4,0.5,4.6,0.7,5.9,0.4c2.1-0.5,5.1-0.1,6.7,1c1.6,1.1,2.9,3.6,2.9,5.8c0,2.1,0.9,5.6,1.9,7.7
		c1.1,2.1,2.8,5.6,3.8,7.7c1.1,2.1,1.9,5.6,1.9,7.7s1.2,5,2.6,6.4c0,0,0.1,0.1,0.2,0.1c7.4-9.4,11.9-21.3,11.9-34.2
		C135,83.2,133.3,75.8,130.3,69z"/>
	<path class="st1" d="M64,93.8h-9.2c-0.9,0-2-0.7-2.5-1.5L50,87.6c-0.4-0.8-1.3-1-2-0.3l-3.4,3.4c-0.7,0.7-1.7,1.7-2.4,2.4l-1.4,1.4
		c-0.7,0.7-1.2,2-1.2,2.9v2.4c0,0.9,0.3,2.4,0.8,3.2l2.3,4.6c0.4,0.8,1.5,1.7,2.4,1.8l6.3,1.3c0.9,0.2,1.7,1.1,1.7,2v15.8
		c0,0.9,0.3,2.4,0.6,3.3l2.6,6.4c0.3,0.9,1.4,1.8,2.2,2.1l2.5,0.8c0.9,0.3,1.6-0.2,1.6-1.2v-6.2c0-0.9,0.6-2.2,1.4-2.7l5-3.7
		c0.7-0.6,1.4-1.8,1.4-2.7v-3.6c0-0.9,0.6-2.2,1.3-2.8l5.1-4.3c0.7-0.6,1.5-1.8,1.7-2.7l1-4.1C71.8,106.7,65.5,101.1,64,93.8z"/>
	<path class="st0" d="M94.7,81.7c0,0.2,0,0.4,0,0.5c0,3.7-1.7,5.3-4,5.6c0.3,0.9,0.5,2,0.5,3.3c0,5.1-2.6,7.1-5.9,7.1
		c-3.3,0-5.9-2-5.9-7.1c0-5.1,2.6-7.1,5.9-7.1c0.1,0,0.2,0,0.3,0c-0.1-0.5-0.2-1.1-0.2-1.8c0-3.9,2-5.5,4.5-5.6
		c-2.7-1.9-6-2.9-9.5-2.9c-9.2,0-16.7,7.5-16.7,16.7c0,9.2,7.5,16.7,16.7,16.7c9.2,0,16.7-7.5,16.7-16.7
		C97.2,87.2,96.3,84.2,94.7,81.7z"/>
</g>
</svg>
