<?xml version="1.0" encoding="utf-8"?>
<!-- Generator: Adobe Illustrator 25.4.1, SVG Export Plug-In . SVG Version: 6.00 Build 0)  -->
<svg version="1.1" id="Calque_1" xmlns="http://www.w3.org/2000/svg" xmlns:xlink="http://www.w3.org/1999/xlink" x="0px" y="0px"
	 viewBox="0 0 479.2 313.5" style="enable-background:new 0 0 479.2 313.5;" xml:space="preserve">
<style type="text/css">
	.st0{fill:#FFFFFF;}
	.st1{fill:#3EA8E0;}
	.st2{fill:none;}
</style>
<g>
	<g>
		<g>
			<path class="st0" d="M337.2,50.4c-3.9-5.1-9-9.1-15-11.8c-6.1-2.8-12.3-4.1-18.8-4.1c-7.9,0-15,1.5-21.4,4.4
				c-6.4,3-11.8,7-16.4,12.1c-4.5,5.1-8.1,11.2-10.6,18.1s-3.8,14.3-3.8,22.2c0,7.4,1.2,14.3,3.6,20.9s5.8,12.4,10.3,17.4
				s9.9,9,16.4,11.8c6.4,2.9,13.8,4.3,21.9,4.3c8,0,15.1-1.6,21.1-4.9c6.1-3.3,11.2-7.9,15.4-13.8l16,12c-1.1,1.5-2.9,3.5-5.5,6.2
				s-6.1,5.4-10.5,8.1c-4.3,2.7-9.6,5.1-15.7,7.1s-13.2,3.1-21.2,3.1c-11.1,0-21-2.1-29.9-6.3s-16.5-9.7-22.7-16.6
				c-6.3-6.8-11-14.6-14.3-23.2s-4.9-17.3-4.9-26.2c0-10.8,1.8-20.8,5.3-29.9c3.6-9.1,8.5-17,14.9-23.7c6.4-6.6,14-11.8,23-15.5
				c8.9-3.7,18.8-5.5,29.6-5.5c9.2,0,18.3,1.8,27.1,5.3c8.9,3.6,16.2,9,21.8,16.4L337.2,50.4z"/>
		</g>
	</g>
	<g>
		<g>
			<path class="st0" d="M378.9,20.2h49.2c8.9,0,16.3,1.2,22.1,3.7c5.8,2.4,10.4,5.5,13.7,9.3c3.4,3.8,5.7,8,7,12.6
				c1.3,4.7,2,9.2,2,13.5c0,4.5-0.8,8.8-2.4,12.9s-3.9,7.9-6.8,11.3c-3,3.4-6.6,6.2-10.9,8.5s-9.1,3.7-14.3,4.2l39.7,63.8h-23.7
				L419,98.4h-21.1V160h-19V20.2z M397.9,81.8h24.9c3.7,0,7.3-0.3,11-0.9c3.6-0.6,6.8-1.7,9.7-3.3c2.8-1.6,5.1-3.8,6.8-6.8
				c1.7-3,2.6-6.8,2.6-11.5s-0.9-8.6-2.6-11.6s-4-5.2-6.8-6.8s-6.1-2.7-9.7-3.3s-7.3-0.9-11-0.9h-24.9V81.8z"/>
		</g>
	</g>
	<g>
		<g>
			<rect x="171.1" y="85" class="st1" width="44.4" height="17.3"/>
		</g>
	</g>
	<g>
		<g>
			<path class="st1" d="M118.2,53.2c2.7,2.4,0.8,5-0.8,6s-5,1.5-7.7,1c-2.6-0.5-6.1-1.4-7.7-1.9s-4.6-0.5-6.7,0s-5.1,0.5-6.7,0
				s-2-2.7-1-4.8c1.1-2.1,3.6-3.8,5.8-3.8s8.1-4.3,10.2-5.3S115.5,50.8,118.2,53.2z"/>
		</g>
	</g>
	<g>
		<path class="st2" d="M158.3,90.1"/>
	</g>
	<g>
		<path class="st0" d="M1.2,60.3C3.1,54,5.7,48,9.1,42.3c3.5-5.6,7.6-10.8,12.3-15.5s10-8.7,15.7-12.3c2.9-1.6,5.8-3.4,8.8-4.8
			l2.3-1.1l1.1-0.5c0.4-0.2,0.8-0.3,1.2-0.5l4.7-1.8C56,5.4,56.8,5.2,57.6,5L60,4.2c1.6-0.5,3.2-1,4.9-1.3l4.9-1.1
			c1.7-0.3,3.3-0.5,5-0.8l2.5-0.4c0.8-0.1,1.7-0.1,2.5-0.2L84.9,0c3.4-0.1,6.8-0.1,10.2,0.1c13.6,0.8,27.1,4.4,39.5,10.8l-5.3,9.6
			c-10.6-6.4-22.5-10.5-35-12.1C91.2,8,88.1,7.7,85,7.6h-4.7c-0.8,0-1.6,0-2.4,0l-2.4,0.2C74,8,72.4,8,70.8,8.2l-4.7,0.7
			c-1.6,0.2-3.1,0.6-4.7,0.9l-2.3,0.5c-0.8,0.2-1.6,0.3-2.3,0.6l-4.6,1.4c-0.4,0.1-0.8,0.2-1.1,0.4L50,13.2l-2.2,0.9
			c-3,1.1-5.8,2.6-8.7,3.9c-5.6,3.1-11,6.6-15.9,10.8c-4.8,4.3-9.2,9-13,14.3C6.6,48.4,3.5,54.2,1.2,60.3z"/>
	</g>
	<g>
		<path class="st0" d="M119.3,162.4c-13.7,9-30.2,14.4-47,15.4c-16.8,1.1-34.3-2.1-49.9-9.8l5.3-9.6c13,8.3,28.6,13.1,44.5,13.9
			C88.2,173.2,104.6,169.9,119.3,162.4z"/>
	</g>
	<g>
		<path class="st0" d="M80.5,31.4c32.5,0,59,26.5,59,59s-26.5,59-59,59s-59-26.5-59-59S47.9,31.4,80.5,31.4 M80.5,16.5
			c-40.9,0-74,33.1-74,74s33.1,74,74,74s74-33.1,74-74C154.4,49.6,121.3,16.5,80.5,16.5L80.5,16.5z"/>
	</g>
	<g>
		<path class="st1" d="M26.7,76.7c1.4,0.9,3.4,1.7,3.6,2.4c0.9,2.8,3,5.9,4.5,6.9c1.6,1.1,4.2,2.8,5.8,3.8c1.6,1.1,2.9,0.2,2.9-1.9
			s-0.9-4.7-1.9-5.8c-1.1-1.1-1.9-3.2-1.9-4.8c0-1.6,3-3.3,6.7-3.8s8.9-2.3,11.5-3.8c2.6-1.6,6.1-5,7.7-7.7c1.6-2.6,4.2-5.2,5.8-5.8
			c1.6-0.5,3.3-2.3,3.8-3.8c0.5-1.6-1.6-3.3-4.8-3.8S61.2,46,60,42.3c-0.3-1-1-1.5-1.9-1.7C42.8,47.2,31.1,60.5,26.7,76.7z"/>
	</g>
	<path class="st1" d="M130.3,69c-1.3,0.2-5.4,0.8-8.1,1.7c-3.2,1.1-8.4,1.5-11.5,1c-3.2-0.5-6.6-2.3-7.7-3.8
		c-1.1-1.6-4.5-2.9-7.7-2.9s-7.1,1.3-8.6,2.9c-1.1,1.1-1.9,3.7-2,6.4c1.9,0.5,3.7,1.3,5.2,2.4c2.3,0,4.2,1.3,4.5,4.6
		c1.4,2.1,2.4,4.6,2.7,7.3c2.4,0.5,4.6,0.7,5.9,0.4c2.1-0.5,5.1-0.1,6.7,1s2.9,3.6,2.9,5.8c0,2.1,0.9,5.6,1.9,7.7
		c1.1,2.1,2.8,5.6,3.8,7.7c1.1,2.1,1.9,5.6,1.9,7.7s1.2,5,2.6,6.4c0,0,0.1,0.1,0.2,0.1c7.4-9.4,11.9-21.3,11.9-34.2
		C135,83.2,133.3,75.8,130.3,69z"/>
	<path class="st1" d="M64,93.8h-9.2c-0.9,0-2-0.7-2.5-1.5L50,87.6c-0.4-0.8-1.3-1-2-0.3l-3.4,3.4c-0.7,0.7-1.7,1.7-2.4,2.4l-1.4,1.4
		c-0.7,0.7-1.2,2-1.2,2.9v2.4c0,0.9,0.3,2.4,0.8,3.2l2.3,4.6c0.4,0.8,1.5,1.7,2.4,1.8l6.3,1.3c0.9,0.2,1.7,1.1,1.7,2v15.8
		c0,0.9,0.3,2.4,0.6,3.3l2.6,6.4c0.3,0.9,1.4,1.8,2.2,2.1l2.5,0.8c0.9,0.3,1.6-0.2,1.6-1.2v-6.2c0-0.9,0.6-2.2,1.4-2.7l5-3.7
		c0.7-0.6,1.4-1.8,1.4-2.7V121c0-0.9,0.6-2.2,1.3-2.8l5.1-4.3c0.7-0.6,1.5-1.8,1.7-2.7l1-4.1C71.8,106.7,65.5,101.1,64,93.8z"/>
	<path class="st0" d="M94.7,81.7c0,0.2,0,0.4,0,0.5c0,3.7-1.7,5.3-4,5.6c0.3,0.9,0.5,2,0.5,3.3c0,5.1-2.6,7.1-5.9,7.1
		s-5.9-2-5.9-7.1S82,84,85.3,84c0.1,0,0.2,0,0.3,0c-0.1-0.5-0.2-1.1-0.2-1.8c0-3.9,2-5.5,4.5-5.6c-2.7-1.9-6-2.9-9.5-2.9
		c-9.2,0-16.7,7.5-16.7,16.7s7.5,16.7,16.7,16.7s16.7-7.5,16.7-16.7C97.2,87.2,96.3,84.2,94.7,81.7z"/>
</g>
<g>
	<path class="st0" d="M18.3,248h-7.2v-28H1.9v-6h25.7v6h-9.2V248z"/>
	<path class="st0" d="M62.7,248h-7.2v-14.7H42V248h-7.2v-34H42v13.3h13.5V214h7.2V248z"/>
	<path class="st0" d="M92.9,248H73.3v-34h19.6v5.9H80.5v7.5H92v5.9H80.5v8.8h12.4V248z"/>
	<path class="st0" d="M147.3,231c0,5.6-1.4,10-4.2,13c-2.8,3-6.8,4.5-12,4.5c-5.2,0-9.2-1.5-12-4.5c-2.8-3-4.2-7.4-4.2-13
		c0-5.7,1.4-10,4.2-13c2.8-3,6.8-4.5,12-4.5c5.2,0,9.2,1.5,12,4.5C145.9,221,147.3,225.3,147.3,231z M122.5,231
		c0,3.8,0.7,6.7,2.2,8.6c1.4,1.9,3.6,2.9,6.5,2.9c5.8,0,8.6-3.8,8.6-11.5c0-7.7-2.9-11.5-8.6-11.5c-2.9,0-5,1-6.5,2.9
		C123.2,224.3,122.5,227.2,122.5,231z"/>
	<path class="st0" d="M156.4,214H167c4.8,0,8.3,0.7,10.5,2.1c2.2,1.4,3.3,3.6,3.3,6.5c0,2-0.5,3.7-1.4,5c-1,1.3-2.2,2.1-3.8,2.3v0.2
		c2.2,0.5,3.7,1.4,4.7,2.7c1,1.3,1.4,3.1,1.4,5.3c0,3.1-1.1,5.5-3.4,7.3c-2.2,1.7-5.3,2.6-9.1,2.6h-12.7V214z M163.6,227.5h4.2
		c2,0,3.4-0.3,4.2-0.9c0.9-0.6,1.3-1.6,1.3-3c0-1.3-0.5-2.2-1.4-2.8c-1-0.6-2.5-0.8-4.5-0.8h-3.8V227.5z M163.6,233.2v8.9h4.7
		c2,0,3.4-0.4,4.4-1.1c0.9-0.8,1.4-1.9,1.4-3.5c0-2.8-2-4.2-6-4.2H163.6z"/>
	<path class="st0" d="M210.5,238.6c0,3.1-1.1,5.5-3.3,7.3c-2.2,1.8-5.3,2.7-9.2,2.7c-3.6,0-6.8-0.7-9.6-2v-6.7
		c2.3,1,4.2,1.7,5.8,2.2c1.6,0.4,3,0.6,4.4,0.6c1.6,0,2.8-0.3,3.6-0.9c0.8-0.6,1.3-1.5,1.3-2.7c0-0.7-0.2-1.3-0.6-1.8
		c-0.4-0.5-0.9-1-1.6-1.5c-0.7-0.5-2.2-1.2-4.4-2.3c-2.1-1-3.6-1.9-4.7-2.8c-1-0.9-1.9-1.9-2.5-3.1c-0.6-1.2-0.9-2.6-0.9-4.2
		c0-3,1-5.4,3.1-7.1c2-1.7,4.9-2.6,8.5-2.6c1.8,0,3.5,0.2,5.1,0.6c1.6,0.4,3.3,1,5,1.8l-2.3,5.6c-1.8-0.7-3.3-1.3-4.5-1.6
		c-1.2-0.3-2.4-0.4-3.5-0.4c-1.4,0-2.4,0.3-3.1,1c-0.7,0.6-1.1,1.5-1.1,2.5c0,0.6,0.1,1.2,0.4,1.7c0.3,0.5,0.8,0.9,1.4,1.4
		c0.6,0.4,2.2,1.2,4.6,2.4c3.2,1.5,5.4,3,6.5,4.6C209.9,234.5,210.5,236.4,210.5,238.6z"/>
	<path class="st0" d="M238.3,248h-19.6v-34h19.6v5.9h-12.4v7.5h11.5v5.9h-11.5v8.8h12.4V248z"/>
	<path class="st0" d="M254.6,235v13h-7.2v-34h9.9c4.6,0,8,0.8,10.3,2.5c2.2,1.7,3.3,4.2,3.3,7.7c0,2-0.6,3.8-1.7,5.3
		c-1.1,1.6-2.7,2.8-4.7,3.7c5.1,7.6,8.4,12.6,10,14.8h-8l-8.1-13H254.6z M254.6,229.1h2.3c2.3,0,4-0.4,5-1.1c1.1-0.8,1.6-2,1.6-3.6
		c0-1.6-0.6-2.8-1.7-3.4c-1.1-0.7-2.8-1-5.2-1h-2.2V229.1z"/>
	<path class="st0" d="M300.3,214h7.3L296,248h-7.9l-11.5-34h7.3l6.4,20.2c0.4,1.2,0.7,2.6,1.1,4.2c0.4,1.6,0.6,2.7,0.7,3.3
		c0.2-1.4,0.8-3.9,1.7-7.5L300.3,214z"/>
	<path class="st0" d="M334.7,248l-2.5-8.1h-12.4l-2.5,8.1h-7.8l12-34.1h8.8l12,34.1H334.7z M330.6,233.9c-2.3-7.3-3.6-11.5-3.8-12.4
		c-0.3-1-0.5-1.7-0.6-2.3c-0.5,2-2,6.9-4.4,14.7H330.6z"/>
	<path class="st0" d="M361.9,248h-7.2v-28h-9.2v-6h25.7v6h-9.2V248z"/>
	<path class="st0" d="M409.3,231c0,5.6-1.4,10-4.2,13c-2.8,3-6.8,4.5-12,4.5s-9.2-1.5-12-4.5c-2.8-3-4.2-7.4-4.2-13
		c0-5.7,1.4-10,4.2-13c2.8-3,6.8-4.5,12-4.5c5.2,0,9.2,1.5,12,4.5C407.9,221,409.3,225.3,409.3,231z M384.5,231
		c0,3.8,0.7,6.7,2.2,8.6c1.4,1.9,3.6,2.9,6.5,2.9c5.8,0,8.6-3.8,8.6-11.5c0-7.7-2.9-11.5-8.6-11.5c-2.9,0-5,1-6.5,2.9
		C385.2,224.3,384.5,227.2,384.5,231z"/>
	<path class="st0" d="M425.6,235v13h-7.2v-34h9.9c4.6,0,8,0.8,10.3,2.5c2.2,1.7,3.3,4.2,3.3,7.7c0,2-0.6,3.8-1.7,5.3
		c-1.1,1.6-2.7,2.8-4.7,3.7c5.1,7.6,8.4,12.6,10,14.8h-8l-8.1-13H425.6z M425.6,229.1h2.3c2.3,0,4-0.4,5-1.1c1.1-0.8,1.6-2,1.6-3.6
		c0-1.6-0.6-2.8-1.7-3.4c-1.1-0.7-2.8-1-5.2-1h-2.2V229.1z"/>
	<path class="st0" d="M462.5,228l7.1-14h7.8l-11.3,20.8V248h-7.2v-13l-11.3-21h7.8L462.5,228z"/>
	<path class="st0" d="M27,283.1c0,4.3-1,7.6-3.1,10c-2.1,2.4-4.9,3.6-8.6,3.6c-2.3,0-4.3-0.6-6.1-1.7c-1.8-1.1-3.1-2.7-4-4.8
		c-0.9-2.1-1.4-4.5-1.4-7.2c0-4.3,1-7.6,3.1-10c2.1-2.4,4.9-3.6,8.5-3.6c3.6,0,6.4,1.2,8.5,3.6C26,275.6,27,278.9,27,283.1z
		 M6.3,283.1c0,3.6,0.8,6.4,2.4,8.4s3.8,3,6.7,3s5.1-1,6.7-3c1.6-2,2.4-4.8,2.4-8.4c0-3.6-0.8-6.4-2.4-8.4c-1.6-2-3.8-3-6.7-3
		s-5.1,1-6.7,3C7.1,276.7,6.3,279.5,6.3,283.1z"/>
	<path class="st0" d="M44.4,272.1h-6.2v24.2h-2.4v-24.2H31v-1.4l4.9-0.9v-2c0-3.2,0.6-5.6,1.8-7.1c1.2-1.5,3.1-2.3,5.8-2.3
		c1.4,0,2.9,0.2,4.3,0.7l-0.6,2.1c-1.3-0.4-2.6-0.6-3.8-0.6c-1.9,0-3.2,0.6-4,1.7c-0.8,1.1-1.2,2.9-1.2,5.4v2.4h6.2V272.1z"/>
	<path class="st0" d="M73.6,269.5c1.1,0,2.3,0.1,3.6,0.3l-0.5,2.3c-1.1-0.3-2.2-0.4-3.4-0.4c-2.2,0-4.1,0.9-5.5,2.8
		c-1.4,1.9-2.1,4.3-2.1,7.2v14.5h-2.4V270h2l0.2,4.7h0.2c1.1-1.9,2.2-3.3,3.5-4.1C70.3,269.9,71.8,269.5,73.6,269.5z"/>
	<path class="st0" d="M93.5,296.7c-3.8,0-6.8-1.2-8.9-3.5c-2.1-2.3-3.2-5.6-3.2-9.9c0-4.2,1-7.5,3.1-10c2.1-2.5,4.8-3.8,8.3-3.8
		c3.1,0,5.5,1.1,7.3,3.2c1.8,2.2,2.7,5.1,2.7,8.8v1.9H83.9c0,3.6,0.9,6.4,2.5,8.3c1.6,1.9,4,2.8,7.1,2.8c1.5,0,2.8-0.1,3.9-0.3
		c1.1-0.2,2.6-0.7,4.3-1.4v2.2c-1.5,0.6-2.8,1.1-4.1,1.3C96.4,296.6,95,296.7,93.5,296.7z M92.8,271.6c-2.5,0-4.6,0.8-6.1,2.5
		c-1.5,1.7-2.4,4.1-2.7,7.2h16.2c0-3-0.7-5.4-2-7.1C97,272.5,95.1,271.6,92.8,271.6z"/>
	<path class="st0" d="M120.2,272.1H114v24.2h-2.4v-24.2h-4.9v-1.4l4.9-0.9v-2c0-3.2,0.6-5.6,1.8-7.1c1.2-1.5,3.1-2.3,5.8-2.3
		c1.4,0,2.9,0.2,4.3,0.7l-0.6,2.1c-1.3-0.4-2.6-0.6-3.8-0.6c-1.9,0-3.2,0.6-4,1.7c-0.8,1.1-1.2,2.9-1.2,5.4v2.4h6.2V272.1z"/>
	<path class="st0" d="M127.8,270v17c0,2.6,0.6,4.6,1.7,5.8c1.1,1.2,2.8,1.8,5.2,1.8c3.1,0,5.4-0.8,6.9-2.4c1.5-1.6,2.2-4.1,2.2-7.7
		V270h2.4v26.2h-2l-0.4-3.6h-0.1c-1.7,2.7-4.7,4.1-9.1,4.1c-6,0-9-3.2-9-9.6V270H127.8z"/>
	<path class="st0" d="M175.8,270v1.7l-5.4,0.3c1.4,1.8,2.2,3.8,2.2,5.9c0,2.5-0.8,4.6-2.5,6.1c-1.7,1.6-3.9,2.4-6.8,2.4
		c-1.2,0-2,0-2.5-0.1c-0.9,0.5-1.7,1.1-2.2,1.8c-0.5,0.7-0.7,1.4-0.7,2.1c0,0.8,0.3,1.4,1,1.8c0.6,0.4,1.7,0.6,3.2,0.6h4.6
		c2.8,0,5,0.6,6.5,1.7c1.5,1.2,2.3,2.9,2.3,5.1c0,2.8-1.1,4.9-3.4,6.4c-2.2,1.5-5.4,2.3-9.6,2.3c-3.3,0-5.9-0.6-7.7-1.9
		c-1.8-1.3-2.7-3-2.7-5.3c0-1.8,0.6-3.3,1.7-4.5c1.1-1.2,2.6-2,4.5-2.4c-0.8-0.3-1.4-0.8-1.9-1.4c-0.5-0.6-0.7-1.3-0.7-2.1
		c0-1.8,1.1-3.3,3.4-4.6c-1.5-0.6-2.7-1.6-3.6-3c-0.9-1.3-1.3-2.9-1.3-4.6c0-2.6,0.8-4.7,2.5-6.3c1.7-1.6,3.9-2.4,6.7-2.4
		c1.7,0,3.1,0.2,4,0.5H175.8z M154.5,300.7c0,3.6,2.7,5.4,8,5.4c6.9,0,10.3-2.2,10.3-6.6c0-1.6-0.5-2.7-1.6-3.4
		c-1.1-0.7-2.8-1.1-5.2-1.1h-4.3C156.9,295,154.5,296.9,154.5,300.7z M156.5,278.2c0,2,0.6,3.6,1.8,4.7c1.2,1.1,2.9,1.7,4.9,1.7
		c2.2,0,3.9-0.6,5-1.7c1.2-1.1,1.7-2.7,1.7-4.8c0-2.2-0.6-3.9-1.8-5c-1.2-1.1-2.9-1.7-5-1.7c-2.1,0-3.7,0.6-4.9,1.8
		C157.1,274.4,156.5,276.1,156.5,278.2z"/>
	<path class="st0" d="M192.2,296.7c-3.8,0-6.8-1.2-8.9-3.5c-2.1-2.3-3.2-5.6-3.2-9.9c0-4.2,1-7.5,3.1-10c2.1-2.5,4.8-3.8,8.3-3.8
		c3.1,0,5.5,1.1,7.3,3.2c1.8,2.2,2.7,5.1,2.7,8.8v1.9h-18.9c0,3.6,0.9,6.4,2.5,8.3c1.6,1.9,4,2.8,7.1,2.8c1.5,0,2.8-0.1,3.9-0.3
		c1.1-0.2,2.6-0.7,4.3-1.4v2.2c-1.5,0.6-2.8,1.1-4.1,1.3C195.1,296.6,193.7,296.7,192.2,296.7z M191.5,271.6c-2.5,0-4.6,0.8-6.1,2.5
		c-1.5,1.7-2.4,4.1-2.7,7.2h16.2c0-3-0.7-5.4-2-7.1C195.7,272.5,193.8,271.6,191.5,271.6z"/>
	<path class="st0" d="M219.8,296.7c-3.8,0-6.8-1.2-8.9-3.5c-2.1-2.3-3.2-5.6-3.2-9.9c0-4.2,1-7.5,3.1-10c2.1-2.5,4.8-3.8,8.3-3.8
		c3.1,0,5.5,1.1,7.3,3.2c1.8,2.2,2.7,5.1,2.7,8.8v1.9h-18.9c0,3.6,0.9,6.4,2.5,8.3c1.6,1.9,4,2.8,7.1,2.8c1.5,0,2.8-0.1,3.9-0.3
		c1.1-0.2,2.6-0.7,4.3-1.4v2.2c-1.5,0.6-2.8,1.1-4.1,1.3C222.7,296.6,221.3,296.7,219.8,296.7z M219.1,271.6c-2.5,0-4.6,0.8-6.1,2.5
		c-1.5,1.7-2.4,4.1-2.7,7.2h16.2c0-3-0.7-5.4-2-7.1C223.2,272.5,221.4,271.6,219.1,271.6z"/>
	<path class="st0" d="M260.5,296.7c-3.7,0-6.7-1.2-8.8-3.5s-3.2-5.7-3.2-9.9c0-4.3,1.1-7.7,3.3-10.1c2.2-2.4,5.2-3.6,9-3.6
		c2.3,0,4.4,0.4,6.5,1.2l-0.7,2.1c-2.3-0.8-4.2-1.1-5.9-1.1c-3.2,0-5.7,1-7.3,3c-1.7,2-2.5,4.8-2.5,8.6c0,3.5,0.8,6.3,2.5,8.3
		c1.7,2,4,3,6.9,3c2.4,0,4.6-0.4,6.6-1.3v2.2C265.4,296.3,263.2,296.7,260.5,296.7z"/>
	<path class="st0" d="M289.8,296.3l-0.6-4.1h-0.2c-1.3,1.7-2.7,2.9-4.1,3.6c-1.4,0.7-3,1-4.9,1c-2.6,0-4.6-0.7-6-2
		c-1.4-1.3-2.1-3.1-2.1-5.5c0-2.6,1.1-4.5,3.2-6c2.1-1.4,5.2-2.2,9.3-2.2l5-0.1v-1.7c0-2.5-0.5-4.4-1.5-5.6c-1-1.3-2.6-1.9-4.9-1.9
		c-2.4,0-4.9,0.7-7.6,2l-0.9-2.1c2.9-1.4,5.7-2,8.5-2c2.9,0,5,0.7,6.5,2.2c1.4,1.5,2.1,3.8,2.1,7v17.4H289.8z M280.2,294.6
		c2.8,0,5-0.8,6.6-2.4c1.6-1.6,2.4-3.8,2.4-6.7v-2.6l-4.6,0.2c-3.7,0.2-6.3,0.8-7.9,1.7c-1.6,1-2.4,2.5-2.4,4.5
		c0,1.6,0.5,2.9,1.5,3.8C276.9,294.1,278.4,294.6,280.2,294.6z"/>
	<path class="st0" d="M333.3,296.3v-17.2c0-2.6-0.5-4.4-1.5-5.6c-1-1.2-2.5-1.8-4.6-1.8c-2.7,0-4.7,0.7-6,2.2
		c-1.3,1.5-1.9,3.8-1.9,7v15.4h-2.4v-17.9c0-4.4-2-6.6-6.1-6.6c-2.8,0-4.8,0.8-6,2.4c-1.3,1.6-1.9,4.2-1.9,7.7v14.5h-2.4V270h2
		l0.5,3.6h0.1c0.7-1.3,1.8-2.3,3.1-3c1.3-0.7,2.8-1.1,4.4-1.1c4.1,0,6.8,1.6,8,4.7h0.1c0.9-1.5,2-2.6,3.4-3.5
		c1.4-0.8,3.1-1.2,4.9-1.2c2.9,0,5,0.8,6.4,2.3c1.4,1.5,2.1,4,2.1,7.3v17.2H333.3z"/>
	<path class="st0" d="M355.8,296.7c-4,0-7-1.5-8.8-4.5h-0.2l0.1,2c0.1,1.2,0.1,2.5,0.1,3.9v10h-2.4V270h2l0.5,3.7h0.1
		c1.8-2.8,4.7-4.2,8.6-4.2c3.5,0,6.2,1.2,8.1,3.5c1.9,2.3,2.8,5.7,2.8,10.1c0,4.3-1,7.7-2.9,10C361.9,295.5,359.2,296.7,355.8,296.7
		z M355.8,294.6c2.7,0,4.8-1,6.2-3c1.5-2,2.2-4.8,2.2-8.4c0-7.7-2.8-11.6-8.3-11.6c-3.1,0-5.3,0.8-6.7,2.5c-1.4,1.7-2.1,4.4-2.1,8.2
		v0.8c0,4.1,0.7,7,2.1,8.8C350.4,293.7,352.7,294.6,355.8,294.6z"/>
	<path class="st0" d="M390.7,289.4c0,2.3-0.9,4.2-2.7,5.4c-1.8,1.3-4.3,1.9-7.6,1.9c-3.5,0-6.3-0.5-8.3-1.6v-2.6
		c2.6,1.3,5.4,2,8.3,2c2.6,0,4.6-0.4,5.9-1.3c1.3-0.9,2-2,2-3.4c0-1.3-0.5-2.4-1.6-3.3c-1.1-0.9-2.8-1.8-5.3-2.7
		c-2.6-0.9-4.5-1.8-5.5-2.4c-1.1-0.7-1.9-1.5-2.4-2.3c-0.5-0.9-0.8-1.9-0.8-3.1c0-2,0.8-3.5,2.5-4.7c1.6-1.1,4-1.7,6.9-1.7
		c2.8,0,5.5,0.5,8.1,1.6l-0.9,2.2c-2.6-1.1-5-1.6-7.2-1.6c-2.1,0-3.8,0.4-5.1,1.1c-1.3,0.7-1.9,1.7-1.9,2.9c0,1.4,0.5,2.5,1.5,3.3
		c1,0.8,2.9,1.7,5.7,2.8c2.4,0.9,4.1,1.6,5.2,2.3c1.1,0.7,1.9,1.5,2.4,2.3C390.5,287.2,390.7,288.3,390.7,289.4z"/>
</g>
</svg>
